<?xml version="1.0" encoding="utf-8"?>
<!-- Generator: Adobe Illustrator 16.0.0, SVG Export Plug-In . SVG Version: 6.00 Build 0)  -->
<!DOCTYPE svg PUBLIC "-//W3C//DTD SVG 1.1//EN" "http://www.w3.org/Graphics/SVG/1.1/DTD/svg11.dtd">
<svg version="1.1" id="Capa_1" xmlns="http://www.w3.org/2000/svg" xmlns:xlink="http://www.w3.org/1999/xlink" x="0px" y="0px"
	 width="900px" height="640px" viewBox="0 0 900 640" enable-background="new 0 0 900 640" xml:space="preserve">
<path d="M778.151,600.859l-39.293-226.861c4.446-16.311,7.411-33.363,8.896-50.415c1.484,0.741,2.965,1.482,5.19,1.482h2.965
	c4.448,0,8.155-3.706,8.155-8.155v-42.259c0-4.448-3.707-8.155-8.155-8.155h-2.965c-2.226,0-3.706,0.742-5.19,1.482
	c-5.931-61.535-30.396-117.138-67.466-161.621c1.481-0.742,2.225-0.742,3.707-2.224l2.225-2.224c2.966-2.965,2.966-8.897,0-11.862
	l-29.653-29.655c-2.967-2.966-8.899-2.966-11.863,0l-2.224,2.224c-0.741,0.741-1.48,2.224-2.225,3.707
	C589.844,25.547,525.343,0.34,455.651,0.34l0,0c0,0-11.122,0-15.569,0.742c-65.244,2.965-123.812,26.69-171.261,65.242
	c-0.742-0.742-0.742-2.224-2.224-2.966l-2.224-2.224c-2.965-2.966-8.896-2.966-11.862,0l-29.656,29.655
	c-2.965,2.965-2.965,8.897,0,11.862l2.225,2.224c0.742,0.741,1.483,1.482,2.225,1.482c-37.811,44.483-61.535,100.828-67.466,161.621
	c-1.483-0.741-2.965-1.482-4.448-1.482h-2.966c-4.449,0-8.155,3.707-8.155,8.155v42.259c0,4.449,3.707,8.156,8.155,8.156h2.966
	c1.482,0,2.965-0.742,4.448-1.483c1.482,17.052,4.448,34.104,9.638,50.415l-39.293,226.861c-5.931,1.484-9.638,5.19-9.638,11.124
	v14.086c0,5.933,5.189,11.122,11.12,11.122h11.121c5.932,0,11.121-5.189,11.121-11.122v-14.086c0-5.19-2.966-8.899-7.414-10.38
	l34.103-193.5c10.379,26.689,25.208,50.411,42.259,72.654c-0.74,0.741-1.482,0.741-2.224,1.48l-2.224,2.226
	c-2.966,2.965-2.966,8.897,0,11.861l29.656,29.654c2.965,2.967,8.896,2.967,11.861,0l2.225-2.226
	c0.741-0.74,0.741-1.479,1.483-1.479c51.896,43.741,117.88,69.689,190.535,69.689c4.449,0,9.639,0,14.088,0
	c6.672,0,14.087-0.74,20.758-1.483h0.743c63.017-7.411,119.362-34.103,163.104-74.136c0.742,0.741,1.483,2.224,2.225,2.966
	l2.224,2.225c3.707,2.965,8.897,2.965,11.862-0.745l28.17-31.138c2.969-3.706,2.969-8.896-0.74-11.859l-2.225-2.225
	c-0.74-0.741-2.224-1.482-2.965-1.482c14.828-20.019,27.432-41.518,36.327-65.242l34.105,194.241
	c-4.447,1.483-7.412,5.19-7.412,10.381v14.088c0,5.93,5.188,11.12,11.119,11.12h11.12c5.934,0,11.124-5.19,11.124-11.12v-14.088
	C787.79,606.05,784.082,602.344,778.151,600.859z M446.753,566.016c-7.414,0-15.569-0.741-22.983-1.482v-63.758h22.983V566.016z
	 M486.045,564.533c-5.93,0.743-12.602,1.482-19.274,1.482c-1.483,0-2.225,0-3.71,0v-65.243h22.242v63.758h0.742V564.533z
	 M503.098,561.567v-60.792c0-9.639-7.414-17.054-17.053-17.054h-22.238V345.824h3.706c14.089,0,25.207-11.12,25.207-25.206v-32.621
	c0-14.086-11.12-25.208-25.207-25.208h-25.948c-14.085,0-25.207,11.121-25.207,25.208v32.621c0,14.086,11.123,25.206,25.207,25.206
	h5.189v137.897h-22.983c-9.638,0-17.049,7.415-17.049,17.054v60.79c-122.329-21.499-216.485-124.552-222.417-252.811
	c-3.706-71.915,21.5-140.863,69.69-194.243c48.19-53.379,114.915-84.517,186.829-88.225c4.448,0,8.896,0,13.345,0
	c143.828,0,262.45,112.69,269.864,257.26C730.702,419.963,633.582,537.844,503.098,561.567z"/>
</svg>
